<mxfile host="Electron" agent="Mozilla/5.0 (Macintosh; Intel Mac OS X 10_15_7) AppleWebKit/537.36 (KHTML, like Gecko) draw.io/25.0.2 Chrome/128.0.6613.186 Electron/32.2.5 Safari/537.36" version="25.0.2">
  <diagram id="C5RBs43oDa-KdzZeNtuy" name="Page-1">
    <mxGraphModel dx="1213" dy="916" grid="1" gridSize="10" guides="1" tooltips="1" connect="1" arrows="1" fold="1" page="1" pageScale="1" pageWidth="1169" pageHeight="827" math="0" shadow="0">
      <root>
        <mxCell id="WIyWlLk6GJQsqaUBKTNV-0" />
        <mxCell id="WIyWlLk6GJQsqaUBKTNV-1" parent="WIyWlLk6GJQsqaUBKTNV-0" />
        <mxCell id="UntqWZLXUudTwBI2XUAF-1" value="Link" style="swimlane;fontStyle=1;align=center;verticalAlign=top;childLayout=stackLayout;horizontal=1;startSize=26;horizontalStack=0;resizeParent=1;resizeParentMax=0;resizeLast=0;collapsible=1;marginBottom=0;whiteSpace=wrap;html=1;fillColor=#dae8fc;strokeColor=#6c8ebf;" vertex="1" parent="WIyWlLk6GJQsqaUBKTNV-1">
          <mxGeometry x="250" y="520" width="200" height="100" as="geometry" />
        </mxCell>
        <mxCell id="UntqWZLXUudTwBI2XUAF-2" value="- id: Long&lt;div&gt;- originalUrl: String&lt;/div&gt;&lt;div&gt;- shortUrl: String&lt;/div&gt;&lt;div&gt;- expirationDate: LocalDateTime&lt;/div&gt;" style="text;strokeColor=none;fillColor=none;align=left;verticalAlign=top;spacingLeft=4;spacingRight=4;overflow=hidden;rotatable=0;points=[[0,0.5],[1,0.5]];portConstraint=eastwest;whiteSpace=wrap;html=1;" vertex="1" parent="UntqWZLXUudTwBI2XUAF-1">
          <mxGeometry y="26" width="200" height="64" as="geometry" />
        </mxCell>
        <mxCell id="UntqWZLXUudTwBI2XUAF-3" value="" style="line;strokeWidth=1;fillColor=none;align=left;verticalAlign=middle;spacingTop=-1;spacingLeft=3;spacingRight=3;rotatable=0;labelPosition=right;points=[];portConstraint=eastwest;strokeColor=inherit;" vertex="1" parent="UntqWZLXUudTwBI2XUAF-1">
          <mxGeometry y="90" width="200" height="10" as="geometry" />
        </mxCell>
        <mxCell id="UntqWZLXUudTwBI2XUAF-62" style="edgeStyle=orthogonalEdgeStyle;rounded=0;orthogonalLoop=1;jettySize=auto;html=1;dashed=1;" edge="1" parent="WIyWlLk6GJQsqaUBKTNV-1" source="UntqWZLXUudTwBI2XUAF-14" target="UntqWZLXUudTwBI2XUAF-32">
          <mxGeometry relative="1" as="geometry" />
        </mxCell>
        <mxCell id="UntqWZLXUudTwBI2XUAF-63" style="edgeStyle=orthogonalEdgeStyle;rounded=0;orthogonalLoop=1;jettySize=auto;html=1;dashed=1;" edge="1" parent="WIyWlLk6GJQsqaUBKTNV-1" source="UntqWZLXUudTwBI2XUAF-14" target="UntqWZLXUudTwBI2XUAF-36">
          <mxGeometry relative="1" as="geometry">
            <Array as="points">
              <mxPoint x="800" y="139" />
              <mxPoint x="800" y="290" />
            </Array>
          </mxGeometry>
        </mxCell>
        <mxCell id="UntqWZLXUudTwBI2XUAF-14" value="LinkController" style="swimlane;fontStyle=1;align=center;verticalAlign=top;childLayout=stackLayout;horizontal=1;startSize=26;horizontalStack=0;resizeParent=1;resizeParentMax=0;resizeLast=0;collapsible=1;marginBottom=0;whiteSpace=wrap;html=1;fillColor=#dae8fc;strokeColor=#6c8ebf;rounded=0;swimlaneLine=1;glass=0;shadow=0;labelBackgroundColor=none;" vertex="1" parent="WIyWlLk6GJQsqaUBKTNV-1">
          <mxGeometry x="270" y="90" width="410" height="98" as="geometry" />
        </mxCell>
        <mxCell id="UntqWZLXUudTwBI2XUAF-15" value="- linkService: LinkService" style="text;align=left;verticalAlign=top;spacingLeft=4;spacingRight=4;overflow=hidden;rotatable=0;points=[[0,0.5],[1,0.5]];portConstraint=eastwest;whiteSpace=wrap;html=1;fillColor=default;" vertex="1" parent="UntqWZLXUudTwBI2XUAF-14">
          <mxGeometry y="26" width="410" height="24" as="geometry" />
        </mxCell>
        <mxCell id="UntqWZLXUudTwBI2XUAF-16" value="" style="line;strokeWidth=1;fillColor=default;align=left;verticalAlign=middle;spacingTop=-1;spacingLeft=3;spacingRight=3;rotatable=0;labelPosition=right;points=[];portConstraint=eastwest;strokeColor=inherit;" vertex="1" parent="UntqWZLXUudTwBI2XUAF-14">
          <mxGeometry y="50" width="410" height="8" as="geometry" />
        </mxCell>
        <mxCell id="UntqWZLXUudTwBI2XUAF-17" value="&lt;div&gt;+ shortenUrl(originalUrl: String): ResponseEntity&amp;lt;ShortUrlResponse&amp;gt;&lt;/div&gt;&lt;div&gt;+ getOriginalUrl(shortUrl: String): ResponseEntity&amp;lt;OriginalUrlResponse&amp;gt;&lt;/div&gt;" style="text;align=left;verticalAlign=top;spacingLeft=4;spacingRight=4;overflow=hidden;rotatable=0;points=[[0,0.5],[1,0.5]];portConstraint=eastwest;whiteSpace=wrap;html=1;fillColor=default;rounded=1;" vertex="1" parent="UntqWZLXUudTwBI2XUAF-14">
          <mxGeometry y="58" width="410" height="40" as="geometry" />
        </mxCell>
        <mxCell id="UntqWZLXUudTwBI2XUAF-48" style="edgeStyle=orthogonalEdgeStyle;rounded=0;orthogonalLoop=1;jettySize=auto;html=1;entryX=0.75;entryY=0;entryDx=0;entryDy=0;dashed=1;" edge="1" parent="WIyWlLk6GJQsqaUBKTNV-1" source="UntqWZLXUudTwBI2XUAF-20" target="UntqWZLXUudTwBI2XUAF-1">
          <mxGeometry relative="1" as="geometry">
            <Array as="points">
              <mxPoint x="560" y="460" />
              <mxPoint x="400" y="460" />
            </Array>
          </mxGeometry>
        </mxCell>
        <mxCell id="UntqWZLXUudTwBI2XUAF-49" style="edgeStyle=orthogonalEdgeStyle;rounded=0;orthogonalLoop=1;jettySize=auto;html=1;entryX=0.5;entryY=1;entryDx=0;entryDy=0;endArrow=diamondThin;endFill=1;endSize=12;" edge="1" parent="WIyWlLk6GJQsqaUBKTNV-1" source="UntqWZLXUudTwBI2XUAF-20" target="UntqWZLXUudTwBI2XUAF-14">
          <mxGeometry relative="1" as="geometry" />
        </mxCell>
        <mxCell id="UntqWZLXUudTwBI2XUAF-20" value="LinkService" style="swimlane;fontStyle=1;align=center;verticalAlign=top;childLayout=stackLayout;horizontal=1;startSize=26;horizontalStack=0;resizeParent=1;resizeParentMax=0;resizeLast=0;collapsible=1;marginBottom=0;whiteSpace=wrap;html=1;fillColor=#dae8fc;strokeColor=#6c8ebf;rounded=0;" vertex="1" parent="WIyWlLk6GJQsqaUBKTNV-1">
          <mxGeometry x="500" y="260" width="250" height="110" as="geometry" />
        </mxCell>
        <mxCell id="UntqWZLXUudTwBI2XUAF-21" value="- linkRepository: LinkRepository&lt;div&gt;- urlValidator: UrlValidator&lt;/div&gt;" style="text;strokeColor=none;fillColor=none;align=left;verticalAlign=top;spacingLeft=4;spacingRight=4;overflow=hidden;rotatable=0;points=[[0,0.5],[1,0.5]];portConstraint=eastwest;whiteSpace=wrap;html=1;" vertex="1" parent="UntqWZLXUudTwBI2XUAF-20">
          <mxGeometry y="26" width="250" height="34" as="geometry" />
        </mxCell>
        <mxCell id="UntqWZLXUudTwBI2XUAF-22" value="" style="line;strokeWidth=1;fillColor=none;align=left;verticalAlign=middle;spacingTop=-1;spacingLeft=3;spacingRight=3;rotatable=0;labelPosition=right;points=[];portConstraint=eastwest;strokeColor=inherit;" vertex="1" parent="UntqWZLXUudTwBI2XUAF-20">
          <mxGeometry y="60" width="250" height="8" as="geometry" />
        </mxCell>
        <mxCell id="UntqWZLXUudTwBI2XUAF-23" value="+ shortenUrl(originalUrl: String): String&lt;div&gt;+ getOriginalUrl(shortUrl: String): String&lt;/div&gt;" style="text;strokeColor=none;fillColor=none;align=left;verticalAlign=top;spacingLeft=4;spacingRight=4;overflow=hidden;rotatable=0;points=[[0,0.5],[1,0.5]];portConstraint=eastwest;whiteSpace=wrap;html=1;" vertex="1" parent="UntqWZLXUudTwBI2XUAF-20">
          <mxGeometry y="68" width="250" height="42" as="geometry" />
        </mxCell>
        <mxCell id="UntqWZLXUudTwBI2XUAF-47" style="edgeStyle=orthogonalEdgeStyle;rounded=0;orthogonalLoop=1;jettySize=auto;html=1;entryX=0.25;entryY=0;entryDx=0;entryDy=0;dashed=1;" edge="1" parent="WIyWlLk6GJQsqaUBKTNV-1" source="UntqWZLXUudTwBI2XUAF-24" target="UntqWZLXUudTwBI2XUAF-1">
          <mxGeometry relative="1" as="geometry" />
        </mxCell>
        <mxCell id="UntqWZLXUudTwBI2XUAF-60" style="edgeStyle=orthogonalEdgeStyle;rounded=0;orthogonalLoop=1;jettySize=auto;html=1;endArrow=diamondThin;endFill=1;endSize=12;" edge="1" parent="WIyWlLk6GJQsqaUBKTNV-1" source="UntqWZLXUudTwBI2XUAF-24" target="UntqWZLXUudTwBI2XUAF-20">
          <mxGeometry relative="1" as="geometry" />
        </mxCell>
        <mxCell id="UntqWZLXUudTwBI2XUAF-24" value="LinkRepository" style="swimlane;fontStyle=1;align=center;verticalAlign=top;childLayout=stackLayout;horizontal=1;startSize=26;horizontalStack=0;resizeParent=1;resizeParentMax=0;resizeLast=0;collapsible=1;marginBottom=0;whiteSpace=wrap;html=1;fillColor=#dae8fc;strokeColor=#6c8ebf;" vertex="1" parent="WIyWlLk6GJQsqaUBKTNV-1">
          <mxGeometry x="130" y="300" width="250" height="90" as="geometry" />
        </mxCell>
        <mxCell id="UntqWZLXUudTwBI2XUAF-26" value="" style="line;strokeWidth=1;fillColor=none;align=left;verticalAlign=middle;spacingTop=-1;spacingLeft=3;spacingRight=3;rotatable=0;labelPosition=right;points=[];portConstraint=eastwest;strokeColor=inherit;" vertex="1" parent="UntqWZLXUudTwBI2XUAF-24">
          <mxGeometry y="26" width="250" height="8" as="geometry" />
        </mxCell>
        <mxCell id="UntqWZLXUudTwBI2XUAF-27" value="+ save(link: Link): void&lt;div&gt;+ findByShortenedUrl(shortUrl: String): Link&lt;/div&gt;&lt;div&gt;+ deleteExpiredLinks(): void&lt;/div&gt;" style="text;strokeColor=none;fillColor=none;align=left;verticalAlign=top;spacingLeft=4;spacingRight=4;overflow=hidden;rotatable=0;points=[[0,0.5],[1,0.5]];portConstraint=eastwest;whiteSpace=wrap;html=1;" vertex="1" parent="UntqWZLXUudTwBI2XUAF-24">
          <mxGeometry y="34" width="250" height="56" as="geometry" />
        </mxCell>
        <mxCell id="UntqWZLXUudTwBI2XUAF-28" value="UrlValidator" style="swimlane;fontStyle=1;align=center;verticalAlign=top;childLayout=stackLayout;horizontal=1;startSize=26;horizontalStack=0;resizeParent=1;resizeParentMax=0;resizeLast=0;collapsible=1;marginBottom=0;whiteSpace=wrap;html=1;fillColor=#dae8fc;strokeColor=#6c8ebf;" vertex="1" parent="WIyWlLk6GJQsqaUBKTNV-1">
          <mxGeometry x="650" y="440" width="290" height="110" as="geometry" />
        </mxCell>
        <mxCell id="UntqWZLXUudTwBI2XUAF-29" value="- safeBrowsingService: GoogleSafeBrowsingService" style="text;strokeColor=none;fillColor=none;align=left;verticalAlign=top;spacingLeft=4;spacingRight=4;overflow=hidden;rotatable=0;points=[[0,0.5],[1,0.5]];portConstraint=eastwest;whiteSpace=wrap;html=1;" vertex="1" parent="UntqWZLXUudTwBI2XUAF-28">
          <mxGeometry y="26" width="290" height="26" as="geometry" />
        </mxCell>
        <mxCell id="UntqWZLXUudTwBI2XUAF-30" value="" style="line;strokeWidth=1;fillColor=none;align=left;verticalAlign=middle;spacingTop=-1;spacingLeft=3;spacingRight=3;rotatable=0;labelPosition=right;points=[];portConstraint=eastwest;strokeColor=inherit;" vertex="1" parent="UntqWZLXUudTwBI2XUAF-28">
          <mxGeometry y="52" width="290" height="8" as="geometry" />
        </mxCell>
        <mxCell id="UntqWZLXUudTwBI2XUAF-31" value="+ isValidUrl(url: String): boolean&lt;div&gt;+ isSafeUrl(url: String): boolean&lt;/div&gt;" style="text;strokeColor=none;fillColor=none;align=left;verticalAlign=top;spacingLeft=4;spacingRight=4;overflow=hidden;rotatable=0;points=[[0,0.5],[1,0.5]];portConstraint=eastwest;whiteSpace=wrap;html=1;" vertex="1" parent="UntqWZLXUudTwBI2XUAF-28">
          <mxGeometry y="60" width="290" height="50" as="geometry" />
        </mxCell>
        <mxCell id="UntqWZLXUudTwBI2XUAF-32" value="ShortUrlResponse" style="swimlane;fontStyle=1;align=center;verticalAlign=top;childLayout=stackLayout;horizontal=1;startSize=26;horizontalStack=0;resizeParent=1;resizeParentMax=0;resizeLast=0;collapsible=1;marginBottom=0;whiteSpace=wrap;html=1;fillColor=#dae8fc;strokeColor=#6c8ebf;" vertex="1" parent="WIyWlLk6GJQsqaUBKTNV-1">
          <mxGeometry x="900" y="109" width="160" height="60" as="geometry" />
        </mxCell>
        <mxCell id="UntqWZLXUudTwBI2XUAF-33" value="- shortUrl: String" style="text;strokeColor=none;fillColor=none;align=left;verticalAlign=top;spacingLeft=4;spacingRight=4;overflow=hidden;rotatable=0;points=[[0,0.5],[1,0.5]];portConstraint=eastwest;whiteSpace=wrap;html=1;" vertex="1" parent="UntqWZLXUudTwBI2XUAF-32">
          <mxGeometry y="26" width="160" height="26" as="geometry" />
        </mxCell>
        <mxCell id="UntqWZLXUudTwBI2XUAF-34" value="" style="line;strokeWidth=1;fillColor=none;align=left;verticalAlign=middle;spacingTop=-1;spacingLeft=3;spacingRight=3;rotatable=0;labelPosition=right;points=[];portConstraint=eastwest;strokeColor=inherit;" vertex="1" parent="UntqWZLXUudTwBI2XUAF-32">
          <mxGeometry y="52" width="160" height="8" as="geometry" />
        </mxCell>
        <mxCell id="UntqWZLXUudTwBI2XUAF-36" value="OriginalUrlResponse" style="swimlane;fontStyle=1;align=center;verticalAlign=top;childLayout=stackLayout;horizontal=1;startSize=26;horizontalStack=0;resizeParent=1;resizeParentMax=0;resizeLast=0;collapsible=1;marginBottom=0;whiteSpace=wrap;html=1;fillColor=#dae8fc;strokeColor=#6c8ebf;" vertex="1" parent="WIyWlLk6GJQsqaUBKTNV-1">
          <mxGeometry x="860" y="260" width="160" height="60" as="geometry" />
        </mxCell>
        <mxCell id="UntqWZLXUudTwBI2XUAF-37" value="- originalUrl: String" style="text;strokeColor=none;fillColor=none;align=left;verticalAlign=top;spacingLeft=4;spacingRight=4;overflow=hidden;rotatable=0;points=[[0,0.5],[1,0.5]];portConstraint=eastwest;whiteSpace=wrap;html=1;" vertex="1" parent="UntqWZLXUudTwBI2XUAF-36">
          <mxGeometry y="26" width="160" height="26" as="geometry" />
        </mxCell>
        <mxCell id="UntqWZLXUudTwBI2XUAF-38" value="" style="line;strokeWidth=1;fillColor=none;align=left;verticalAlign=middle;spacingTop=-1;spacingLeft=3;spacingRight=3;rotatable=0;labelPosition=right;points=[];portConstraint=eastwest;strokeColor=inherit;" vertex="1" parent="UntqWZLXUudTwBI2XUAF-36">
          <mxGeometry y="52" width="160" height="8" as="geometry" />
        </mxCell>
        <mxCell id="UntqWZLXUudTwBI2XUAF-58" style="edgeStyle=orthogonalEdgeStyle;rounded=0;orthogonalLoop=1;jettySize=auto;html=1;exitX=0.5;exitY=0;exitDx=0;exitDy=0;endArrow=diamondThin;endFill=1;endSize=12;" edge="1" parent="WIyWlLk6GJQsqaUBKTNV-1" source="UntqWZLXUudTwBI2XUAF-40" target="UntqWZLXUudTwBI2XUAF-28">
          <mxGeometry relative="1" as="geometry" />
        </mxCell>
        <mxCell id="UntqWZLXUudTwBI2XUAF-40" value="&lt;div&gt;&amp;lt;&amp;lt; external &amp;gt;&amp;gt;&lt;/div&gt;GoogleSafeBrowsingService" style="swimlane;fontStyle=1;align=center;verticalAlign=top;childLayout=stackLayout;horizontal=1;startSize=40;horizontalStack=0;resizeParent=1;resizeParentMax=0;resizeLast=0;collapsible=1;marginBottom=0;whiteSpace=wrap;html=1;fillColor=#dae8fc;strokeColor=#6c8ebf;" vertex="1" parent="WIyWlLk6GJQsqaUBKTNV-1">
          <mxGeometry x="690" y="620" width="230" height="74" as="geometry" />
        </mxCell>
        <mxCell id="UntqWZLXUudTwBI2XUAF-42" value="" style="line;strokeWidth=1;fillColor=none;align=left;verticalAlign=middle;spacingTop=-1;spacingLeft=3;spacingRight=3;rotatable=0;labelPosition=right;points=[];portConstraint=eastwest;strokeColor=inherit;" vertex="1" parent="UntqWZLXUudTwBI2XUAF-40">
          <mxGeometry y="40" width="230" height="8" as="geometry" />
        </mxCell>
        <mxCell id="UntqWZLXUudTwBI2XUAF-43" value="+ checkUrlSafety(url: String): boolean" style="text;strokeColor=none;fillColor=none;align=left;verticalAlign=top;spacingLeft=4;spacingRight=4;overflow=hidden;rotatable=0;points=[[0,0.5],[1,0.5]];portConstraint=eastwest;whiteSpace=wrap;html=1;" vertex="1" parent="UntqWZLXUudTwBI2XUAF-40">
          <mxGeometry y="48" width="230" height="26" as="geometry" />
        </mxCell>
        <mxCell id="UntqWZLXUudTwBI2XUAF-56" style="edgeStyle=orthogonalEdgeStyle;rounded=0;orthogonalLoop=1;jettySize=auto;html=1;exitX=0.5;exitY=0;exitDx=0;exitDy=0;entryX=0.52;entryY=1;entryDx=0;entryDy=0;entryPerimeter=0;endSize=12;endArrow=diamondThin;endFill=1;" edge="1" parent="WIyWlLk6GJQsqaUBKTNV-1" source="UntqWZLXUudTwBI2XUAF-28" target="UntqWZLXUudTwBI2XUAF-23">
          <mxGeometry relative="1" as="geometry" />
        </mxCell>
        <mxCell id="UntqWZLXUudTwBI2XUAF-61" value="&lt;font style=&quot;font-size: 34px;&quot;&gt;&lt;b&gt;Class Diagram - MVP&lt;/b&gt;&lt;/font&gt;" style="text;html=1;align=center;verticalAlign=middle;resizable=0;points=[];autosize=1;strokeColor=none;fillColor=none;" vertex="1" parent="WIyWlLk6GJQsqaUBKTNV-1">
          <mxGeometry x="405" y="20" width="360" height="50" as="geometry" />
        </mxCell>
        <mxCell id="UntqWZLXUudTwBI2XUAF-65" value="" style="endArrow=classic;html=1;rounded=0;dashed=1;" edge="1" parent="WIyWlLk6GJQsqaUBKTNV-1">
          <mxGeometry width="50" height="50" relative="1" as="geometry">
            <mxPoint x="80" y="700" as="sourcePoint" />
            <mxPoint x="160" y="700" as="targetPoint" />
          </mxGeometry>
        </mxCell>
        <mxCell id="UntqWZLXUudTwBI2XUAF-66" value="Dependency" style="text;html=1;align=center;verticalAlign=middle;resizable=0;points=[];autosize=1;strokeColor=none;fillColor=none;" vertex="1" parent="WIyWlLk6GJQsqaUBKTNV-1">
          <mxGeometry x="180" y="685" width="90" height="30" as="geometry" />
        </mxCell>
        <mxCell id="UntqWZLXUudTwBI2XUAF-67" value="" style="endArrow=diamondThin;html=1;rounded=0;endFill=1;endSize=12;" edge="1" parent="WIyWlLk6GJQsqaUBKTNV-1">
          <mxGeometry width="50" height="50" relative="1" as="geometry">
            <mxPoint x="80" y="732" as="sourcePoint" />
            <mxPoint x="160" y="732" as="targetPoint" />
          </mxGeometry>
        </mxCell>
        <mxCell id="UntqWZLXUudTwBI2XUAF-68" value="Aggregation" style="text;html=1;align=center;verticalAlign=middle;resizable=0;points=[];autosize=1;strokeColor=none;fillColor=none;" vertex="1" parent="WIyWlLk6GJQsqaUBKTNV-1">
          <mxGeometry x="180" y="717" width="90" height="30" as="geometry" />
        </mxCell>
      </root>
    </mxGraphModel>
  </diagram>
</mxfile>
